<?xml version="1.0" standalone="no"?>
<!DOCTYPE svg PUBLIC "-//W3C//DTD SVG 20010904//EN"
 "http://www.w3.org/TR/2001/REC-SVG-20010904/DTD/svg10.dtd">
<svg version="1.0" xmlns="http://www.w3.org/2000/svg"
 width="4963.000000pt" height="4963.000000pt" viewBox="0 0 4963.000000 4963.000000"
 preserveAspectRatio="xMidYMid meet">

<g transform="translate(0.000000,4963.000000) scale(0.100000,-0.100000)"
fill="#000000" stroke="none">
<path d="M40197 41135 c1289 -1415 2312 -2844 3214 -4492 274 -501 651 -1278
899 -1853 977 -2264 1579 -4737 1755 -7215 46 -649 59 -1096 52 -1840 -5 -589
-10 -739 -37 -1185 -260 -4277 -1757 -8401 -4313 -11875 -1328 -1806 -2937
-3421 -4737 -4757 -3495 -2592 -7634 -4104 -11960 -4368 -437 -26 -593 -31
-1165 -37 -937 -9 -1607 20 -2485 108 -2254 224 -4470 795 -6555 1689 -741
317 -1557 723 -2249 1117 -1504 857 -2927 1899 -4187 3067 -36 34 0 -4 80 -83
475 -470 1193 -1095 1806 -1572 4343 -3383 9697 -5037 15195 -4694 3395 212
6684 1193 9645 2878 3495 1988 6414 4898 8415 8387 295 514 674 1248 910 1760
1156 2517 1831 5190 2005 7940 33 530 39 763 39 1430 0 809 -17 1234 -79 1955
-394 4550 -2169 8853 -5109 12385 -345 414 -790 910 -1110 1235 l-148 150 119
-130z"/>
<path d="M32738 36125 c-78 -19 -173 -64 -234 -111 -28 -21 -1061 -877 -2295
-1901 -1519 -1261 -2257 -1879 -2285 -1915 -158 -204 -186 -462 -74 -694 70
-146 217 -277 367 -329 37 -13 1393 -416 3013 -897 l2945 -873 135 0 c121 0
142 3 208 27 103 37 174 82 251 159 125 126 181 255 189 434 5 133 -9 202 -70
325 -59 120 -170 232 -289 288 -60 28 -512 166 -1617 493 -1224 362 -1528 456
-1505 462 15 4 341 52 723 108 732 106 777 115 887 181 72 43 179 149 222 221
227 383 27 867 -405 977 -42 11 -107 20 -144 20 -36 0 -513 -65 -1060 -145
-547 -79 -995 -143 -997 -141 -1 1 596 499 1328 1106 793 657 1347 1124 1371
1153 126 160 174 357 134 547 -51 241 -252 449 -488 505 -78 18 -234 18 -310
0z"/>
<path d="M15890 33530 c-873 -63 -1610 -682 -1825 -1532 -191 -753 70 -1555
670 -2057 791 -660 1956 -622 2699 89 324 310 532 698 605 1131 120 701 -135
1411 -672 1874 -279 242 -595 396 -950 464 -89 17 -361 44 -407 39 -8 0 -62
-4 -120 -8z m-422 -556 c46 -9 118 -35 178 -64 294 -142 468 -462 424 -779
-67 -487 -555 -787 -1015 -624 -225 80 -395 257 -475 493 -34 99 -39 298 -12
408 101 400 495 648 900 566z"/>
<path d="M10185 22382 c-239 -81 -395 -297 -395 -545 0 -88 11 -137 106 -467
603 -2095 1571 -3989 2861 -5595 1522 -1897 3456 -3339 5663 -4223 1950 -781
4107 -1110 6280 -956 2375 167 4597 901 6561 2165 1506 969 2856 2274 3921
3789 942 1342 1697 2900 2193 4525 193 634 215 742 181 889 -44 186 -182 343
-364 413 -52 20 -91 27 -172 30 -182 9 -301 -38 -431 -167 -98 -97 -125 -152
-189 -382 -361 -1297 -879 -2536 -1523 -3638 -974 -1667 -2248 -3075 -3757
-4152 -1874 -1337 -4079 -2133 -6410 -2312 -667 -52 -1439 -52 -2095 0 -2195
172 -4253 878 -6050 2077 -2373 1584 -4191 3964 -5233 6852 -143 397 -286 848
-377 1190 -53 198 -90 272 -184 366 -120 120 -240 169 -411 169 -77 0 -110 -6
-175 -28z"/>
</g>
</svg>
